<svg id="Capa_1" data-name="Capa 1" xmlns="http://www.w3.org/2000/svg" xmlns:xlink="http://www.w3.org/1999/xlink" viewBox="0 0 218.72104 36.88202"><defs><style>.cls-1{fill:url(#Degradado_sin_nombre_2);}.cls-2{fill:none;}.cls-3{clip-path:url(#clip-path);}.cls-4,.cls-5,.cls-9{font-size:42.16798px;}.cls-12,.cls-4,.cls-5,.cls-9{fill:#fff;}.cls-4{font-family:TimesNewRomanPSMT, Times New Roman;}.cls-5,.cls-9{font-family:OktaNeue-Regular, Okta Neue;}.cls-6,.cls-9{letter-spacing:0.00701em;}.cls-7{letter-spacing:0.00399em;}.cls-8{letter-spacing:-0.003em;}.cls-10{letter-spacing:0.00499em;}.cls-11{letter-spacing:0.00001em;}.cls-13{fill:#d4141e;}.cls-14{fill:url(#Unnamed_Pattern);}.cls-15{clip-path:url(#clip-path-2);}.cls-16{mask:url(#mask);}.cls-17{fill:url(#Degradado_sin_nombre);}</style><linearGradient id="Degradado_sin_nombre_2" x1="-983.94871" y1="1050.35244" x2="-982.94871" y2="1050.35244" gradientTransform="matrix(-118.05573, 0, 0, 118.05573, -116004.50011, -123981.68651)" gradientUnits="userSpaceOnUse"><stop offset="0" stop-color="#fff"/><stop offset="0.0552" stop-color="#fff"/><stop offset="0.06217" stop-color="#f6f6f6"/><stop offset="0.10024" stop-color="#c8c8c8"/><stop offset="0.14315" stop-color="#9d9d9d"/><stop offset="0.18926" stop-color="#777"/><stop offset="0.23946" stop-color="#575757"/><stop offset="0.29493" stop-color="#3b3b3b"/><stop offset="0.35754" stop-color="#252525"/><stop offset="0.43068" stop-color="#141414"/><stop offset="0.52109" stop-color="#090909"/><stop offset="0.64793" stop-color="#020202"/><stop offset="1"/></linearGradient><clipPath id="clip-path"><rect class="cls-2" width="215.433" height="215.433"/></clipPath><pattern id="Unnamed_Pattern" data-name="Unnamed Pattern" width="215.433" height="215.433" patternTransform="matrix(0.72815, 0, 0, -0.68783, 269.32605, 11197.45181)" patternUnits="userSpaceOnUse" viewBox="0 0 215.433 215.433"><rect class="cls-2" width="215.433" height="215.433"/><g class="cls-3"><text class="cls-4" transform="matrix(0.97075, 0.24009, 0.24009, -0.97075, 220.46451, 1.89475)">FESC</text><text class="cls-4" transform="matrix(0.97075, 0.24009, 0.24009, -0.97075, 5.00708, 1.90544)">FESC</text><text class="cls-4" transform="matrix(0.97075, 0.24009, 0.24009, -0.97075, 113.82968, -4.28045)">FESC</text><text class="cls-5" transform="matrix(0.97075, 0.24009, 0.24009, -0.97075, 10.83821, -29.92566)"><tspan class="cls-6">F</tspan><tspan class="cls-7" x="24.66797" y="0">E</tspan><tspan class="cls-8" x="49.20898" y="0">S</tspan><tspan x="73.75049" y="0">C</tspan></text><text class="cls-9" transform="matrix(0.97075, 0.24009, 0.24009, -0.97075, 117.57859, -38.40755)">F<tspan class="cls-10" x="24.66797" y="0">E</tspan><tspan class="cls-8" x="49.25098" y="0">S</tspan><tspan class="cls-11" x="73.79248" y="0">C</tspan></text><text class="cls-5" transform="matrix(0.97075, 0.24009, 0.24009, -0.97075, 103.27433, 27.86039)"><tspan class="cls-6">F</tspan><tspan class="cls-7" x="24.66797" y="0">E</tspan><tspan class="cls-8" x="49.20898" y="0">S</tspan><tspan x="73.75049" y="0">C</tspan></text><text class="cls-4" transform="matrix(0.97075, 0.24009, 0.24009, -0.97075, -101.58661, -4.25876)">FESC</text><text class="cls-9" transform="matrix(0.97075, 0.24009, 0.24009, -0.97075, -97.87884, -38.39686)">F<tspan class="cls-10" x="24.66797" y="0">E</tspan><tspan class="cls-8" x="49.25098" y="0">S</tspan><tspan class="cls-11" x="73.79248" y="0">C</tspan></text><text class="cls-4" transform="matrix(0.97075, 0.24009, 0.24009, -0.97075, 220.44978, 109.61821)">FESC</text><path class="cls-12" d="M225.28059,67.9252a6.643,6.643,0,1,0-6.643,6.643,6.64279,6.64279,0,0,0,6.643-6.643"/><text class="cls-4" transform="matrix(0.97075, 0.24009, 0.24009, -0.97075, 5.03105, 109.61156)">FESC</text><text class="cls-4" transform="matrix(0.97075, 0.24009, 0.24009, -0.97075, 20.86557, 45.58943)">FESC</text><text class="cls-4" transform="matrix(0.97075, 0.24009, 0.24009, -0.97075, 113.85463, 103.42568)">FESC</text><text class="cls-9" transform="matrix(0.97075, 0.24009, 0.24009, -0.97075, 10.86241, 77.77952)">F<tspan class="cls-10" x="24.66797" y="0">E</tspan><tspan class="cls-8" x="49.25098" y="0">S</tspan><tspan class="cls-11" x="73.79248" y="0">C</tspan></text><text class="cls-5" transform="matrix(0.97075, 0.24009, 0.24009, -0.97075, 117.60377, 69.29763)"><tspan class="cls-6">F</tspan><tspan class="cls-7" x="24.66797" y="0">E</tspan><tspan class="cls-8" x="49.20898" y="0">S</tspan><tspan x="73.75049" y="0">C</tspan></text><text class="cls-9" transform="matrix(0.97075, 0.24009, 0.24009, -0.97075, 103.29854, 135.56557)">F<tspan class="cls-10" x="24.66797" y="0">E</tspan><tspan class="cls-8" x="49.25098" y="0">S</tspan><tspan class="cls-11" x="73.79248" y="0">C</tspan></text><path class="cls-12" d="M9.8476,67.9252a6.643,6.643,0,1,0-6.643,6.643,6.64278,6.64278,0,0,0,6.643-6.643"/><text class="cls-4" transform="matrix(0.97075, 0.24009, 0.24009, -0.97075, -101.59423, 103.44031)">FESC</text><text class="cls-9" transform="matrix(0.97075, 0.24009, 0.24009, -0.97075, -97.88599, 69.30282)">F<tspan class="cls-10" x="24.66797" y="0">E</tspan><tspan class="cls-8" x="49.25098" y="0">S</tspan><tspan class="cls-11" x="73.79248" y="0">C</tspan></text><text class="cls-4" transform="matrix(0.97075, 0.24009, 0.24009, -0.97075, 220.44262, 217.3174)">FESC</text><path class="cls-12" d="M225.28059,175.6418a6.643,6.643,0,1,0-6.643,6.643,6.64279,6.64279,0,0,0,6.643-6.643"/><text class="cls-4" transform="matrix(0.97075, 0.24009, 0.24009, -0.97075, 5.03093, 217.32717)">FESC</text><text class="cls-4" transform="matrix(0.97075, 0.24009, 0.24009, -0.97075, 20.86545, 153.30552)">FESC</text><text class="cls-4" transform="matrix(0.97075, 0.24009, 0.24009, -0.97075, 113.8545, 211.14177)">FESC</text><text class="cls-9" transform="matrix(0.97075, 0.24009, 0.24009, -0.97075, 10.86229, 185.49512)">F<tspan class="cls-10" x="24.66797" y="0">E</tspan><tspan class="cls-8" x="49.25098" y="0">S</tspan><tspan class="cls-11" x="73.79248" y="0">C</tspan></text><text class="cls-9" transform="matrix(0.97075, 0.24009, 0.24009, -0.97075, 117.60365, 177.01372)">F<tspan class="cls-10" x="24.66797" y="0">E</tspan><tspan class="cls-8" x="49.25098" y="0">S</tspan><tspan class="cls-11" x="73.79248" y="0">C</tspan></text><path class="cls-12" d="M9.8476,175.6418a6.643,6.643,0,1,0-6.643,6.643,6.64278,6.64278,0,0,0,6.643-6.643"/><text class="cls-4" transform="matrix(0.97075, 0.24009, 0.24009, -0.97075, -101.59459, 211.15687)">FESC</text><text class="cls-9" transform="matrix(0.97075, 0.24009, 0.24009, -0.97075, -97.88635, 177.01937)">F<tspan class="cls-10" x="24.66797" y="0">E</tspan><tspan class="cls-8" x="49.25098" y="0">S</tspan><tspan class="cls-11" x="73.79248" y="0">C</tspan></text></g></pattern><clipPath id="clip-path-2"><rect class="cls-2" x="105.459" y="-0.06549" width="68.85399" height="37.013"/></clipPath><mask id="mask" x="105.459" y="-0.06555" width="68.85399" height="37.01306" maskUnits="userSpaceOnUse"><rect class="cls-1" x="105.45901" y="-0.06555" width="68.85397" height="37.013"/></mask><linearGradient id="Degradado_sin_nombre" x1="-983.94871" y1="1050.35244" x2="-982.94871" y2="1050.35244" gradientTransform="matrix(-118.05572, 0, 0, 118.05572, -116004.48523, -123981.67038)" gradientUnits="userSpaceOnUse"><stop offset="0" stop-color="#d4141e"/><stop offset="0.0552" stop-color="#d4141e"/><stop offset="1" stop-color="#d4141e"/></linearGradient></defs><path class="cls-13" d="M0,.06476v36.882H198.019c2.049-12.517,5.193-25.092,11.122-36.882Z"/><rect class="cls-14" y="0.06451" width="152.422" height="36.88202"/><g class="cls-15"><g class="cls-16"><rect class="cls-17" x="105.459" y="-0.06549" width="68.85397" height="37.013"/></g></g></svg>