<svg id="Capa_1" data-name="Capa 1" xmlns="http://www.w3.org/2000/svg" xmlns:xlink="http://www.w3.org/1999/xlink" viewBox="0 0 218.72104 36.88202"><defs><style>.cls-1{fill:url(#Degradado_sin_nombre_4);}.cls-2{fill:none;}.cls-3{clip-path:url(#clip-path);}.cls-4,.cls-5,.cls-9{font-size:42.16798px;}.cls-12,.cls-4,.cls-5,.cls-9{fill:#fff;}.cls-4{font-family:TimesNewRomanPSMT, Times New Roman;}.cls-5,.cls-9{font-family:OktaNeue-Regular, Okta Neue;}.cls-6,.cls-9{letter-spacing:0.00701em;}.cls-7{letter-spacing:0.00399em;}.cls-8{letter-spacing:-0.003em;}.cls-10{letter-spacing:0.00499em;}.cls-11{letter-spacing:0.00001em;}.cls-13{fill:#d4141e;}.cls-14{fill:url(#Unnamed_Pattern);}.cls-15{clip-path:url(#clip-path-2);}.cls-16{mask:url(#mask);}.cls-17{fill:url(#Degradado_sin_nombre_3);}</style><linearGradient id="Degradado_sin_nombre_4" x1="-968.6962" y1="1012.22805" x2="-967.6962" y2="1012.22805" gradientTransform="matrix(83.56411, 0, 0, -83.56411, 81022.52819, 84604.37718)" gradientUnits="userSpaceOnUse"><stop offset="0" stop-color="#fff"/><stop offset="0.04675" stop-color="#d1d1d1"/><stop offset="0.09837" stop-color="#a5a5a5"/><stop offset="0.15554" stop-color="#7e7e7e"/><stop offset="0.2171" stop-color="#5c5c5c"/><stop offset="0.28425" stop-color="#3f3f3f"/><stop offset="0.35892" stop-color="#282828"/><stop offset="0.44424" stop-color="#161616"/><stop offset="0.54677" stop-color="#090909"/><stop offset="0.68391" stop-color="#020202"/><stop offset="1"/></linearGradient><clipPath id="clip-path"><rect class="cls-2" width="215.433" height="215.433"/></clipPath><pattern id="Unnamed_Pattern" data-name="Unnamed Pattern" width="215.433" height="215.433" patternTransform="matrix(0.82486, 0, 0, -0.77918, 113.90632, 12806.10932)" patternUnits="userSpaceOnUse" viewBox="0 0 215.433 215.433"><rect class="cls-2" width="215.433" height="215.433"/><g class="cls-3"><text class="cls-4" transform="matrix(0.97075, 0.24009, 0.24009, -0.97075, 220.46451, 1.89475)">FESC</text><text class="cls-4" transform="matrix(0.97075, 0.24009, 0.24009, -0.97075, 5.00708, 1.90544)">FESC</text><text class="cls-4" transform="matrix(0.97075, 0.24009, 0.24009, -0.97075, 113.82968, -4.28045)">FESC</text><text class="cls-5" transform="matrix(0.97075, 0.24009, 0.24009, -0.97075, 10.83821, -29.92566)"><tspan class="cls-6">F</tspan><tspan class="cls-7" x="24.66797" y="0">E</tspan><tspan class="cls-8" x="49.20898" y="0">S</tspan><tspan x="73.75049" y="0">C</tspan></text><text class="cls-9" transform="matrix(0.97075, 0.24009, 0.24009, -0.97075, 117.57859, -38.40755)">F<tspan class="cls-10" x="24.66797" y="0">E</tspan><tspan class="cls-8" x="49.25098" y="0">S</tspan><tspan class="cls-11" x="73.79248" y="0">C</tspan></text><text class="cls-5" transform="matrix(0.97075, 0.24009, 0.24009, -0.97075, 103.27433, 27.86039)"><tspan class="cls-6">F</tspan><tspan class="cls-7" x="24.66797" y="0">E</tspan><tspan class="cls-8" x="49.20898" y="0">S</tspan><tspan x="73.75049" y="0">C</tspan></text><text class="cls-4" transform="matrix(0.97075, 0.24009, 0.24009, -0.97075, -101.58661, -4.25876)">FESC</text><text class="cls-9" transform="matrix(0.97075, 0.24009, 0.24009, -0.97075, -97.87884, -38.39686)">F<tspan class="cls-10" x="24.66797" y="0">E</tspan><tspan class="cls-8" x="49.25098" y="0">S</tspan><tspan class="cls-11" x="73.79248" y="0">C</tspan></text><text class="cls-4" transform="matrix(0.97075, 0.24009, 0.24009, -0.97075, 220.44978, 109.61821)">FESC</text><path class="cls-12" d="M225.28059,67.9252a6.643,6.643,0,1,0-6.643,6.643,6.64279,6.64279,0,0,0,6.643-6.643"/><text class="cls-4" transform="matrix(0.97075, 0.24009, 0.24009, -0.97075, 5.03105, 109.61156)">FESC</text><text class="cls-4" transform="matrix(0.97075, 0.24009, 0.24009, -0.97075, 20.86557, 45.58943)">FESC</text><text class="cls-4" transform="matrix(0.97075, 0.24009, 0.24009, -0.97075, 113.85463, 103.42568)">FESC</text><text class="cls-9" transform="matrix(0.97075, 0.24009, 0.24009, -0.97075, 10.86241, 77.77952)">F<tspan class="cls-10" x="24.66797" y="0">E</tspan><tspan class="cls-8" x="49.25098" y="0">S</tspan><tspan class="cls-11" x="73.79248" y="0">C</tspan></text><text class="cls-5" transform="matrix(0.97075, 0.24009, 0.24009, -0.97075, 117.60377, 69.29763)"><tspan class="cls-6">F</tspan><tspan class="cls-7" x="24.66797" y="0">E</tspan><tspan class="cls-8" x="49.20898" y="0">S</tspan><tspan x="73.75049" y="0">C</tspan></text><text class="cls-9" transform="matrix(0.97075, 0.24009, 0.24009, -0.97075, 103.29854, 135.56557)">F<tspan class="cls-10" x="24.66797" y="0">E</tspan><tspan class="cls-8" x="49.25098" y="0">S</tspan><tspan class="cls-11" x="73.79248" y="0">C</tspan></text><path class="cls-12" d="M9.8476,67.9252a6.643,6.643,0,1,0-6.643,6.643,6.64278,6.64278,0,0,0,6.643-6.643"/><text class="cls-4" transform="matrix(0.97075, 0.24009, 0.24009, -0.97075, -101.59423, 103.44031)">FESC</text><text class="cls-9" transform="matrix(0.97075, 0.24009, 0.24009, -0.97075, -97.88599, 69.30282)">F<tspan class="cls-10" x="24.66797" y="0">E</tspan><tspan class="cls-8" x="49.25098" y="0">S</tspan><tspan class="cls-11" x="73.79248" y="0">C</tspan></text><text class="cls-4" transform="matrix(0.97075, 0.24009, 0.24009, -0.97075, 220.44262, 217.3174)">FESC</text><path class="cls-12" d="M225.28059,175.6418a6.643,6.643,0,1,0-6.643,6.643,6.64279,6.64279,0,0,0,6.643-6.643"/><text class="cls-4" transform="matrix(0.97075, 0.24009, 0.24009, -0.97075, 5.03093, 217.32717)">FESC</text><text class="cls-4" transform="matrix(0.97075, 0.24009, 0.24009, -0.97075, 20.86545, 153.30552)">FESC</text><text class="cls-4" transform="matrix(0.97075, 0.24009, 0.24009, -0.97075, 113.8545, 211.14177)">FESC</text><text class="cls-9" transform="matrix(0.97075, 0.24009, 0.24009, -0.97075, 10.86229, 185.49512)">F<tspan class="cls-10" x="24.66797" y="0">E</tspan><tspan class="cls-8" x="49.25098" y="0">S</tspan><tspan class="cls-11" x="73.79248" y="0">C</tspan></text><text class="cls-9" transform="matrix(0.97075, 0.24009, 0.24009, -0.97075, 117.60365, 177.01372)">F<tspan class="cls-10" x="24.66797" y="0">E</tspan><tspan class="cls-8" x="49.25098" y="0">S</tspan><tspan class="cls-11" x="73.79248" y="0">C</tspan></text><path class="cls-12" d="M9.8476,175.6418a6.643,6.643,0,1,0-6.643,6.643,6.64278,6.64278,0,0,0,6.643-6.643"/><text class="cls-4" transform="matrix(0.97075, 0.24009, 0.24009, -0.97075, -101.59459, 211.15687)">FESC</text><text class="cls-9" transform="matrix(0.97075, 0.24009, 0.24009, -0.97075, -97.88635, 177.01937)">F<tspan class="cls-10" x="24.66797" y="0">E</tspan><tspan class="cls-8" x="49.25098" y="0">S</tspan><tspan class="cls-11" x="73.79248" y="0">C</tspan></text></g></pattern><clipPath id="clip-path-2"><rect class="cls-2" x="40.86803" y="-0.06549" width="68.854" height="37.013"/></clipPath><mask id="mask" x="40.86803" y="-0.06543" width="68.85403" height="37.01294" maskUnits="userSpaceOnUse"><rect class="cls-1" x="40.86803" y="-0.06543" width="68.85403" height="37.01294"/></mask><linearGradient id="Degradado_sin_nombre_3" x1="-968.6962" y1="1012.22805" x2="-967.6962" y2="1012.22805" gradientTransform="matrix(83.56411, 0, 0, -83.56411, 81022.52819, 84604.37718)" gradientUnits="userSpaceOnUse"><stop offset="0" stop-color="#d4141e"/><stop offset="1" stop-color="#d4141e"/></linearGradient></defs><path class="cls-13" d="M218.867.06476H18.78351c-6.16,12.161-8.73124,24.539-10.58674,36.882H218.867Z"/><rect class="cls-14" x="74.48003" y="0.06451" width="144.38699" height="36.88202"/><g class="cls-15"><g class="cls-16"><rect class="cls-17" x="40.86803" y="-0.06543" width="68.85403" height="37.01294"/></g></g></svg>