<svg id="Capa_1" data-name="Capa 1" xmlns="http://www.w3.org/2000/svg" viewBox="0 0 123.96117 36.1165"><defs><style>.cls-1{font-size:11.5046px;}.cls-1,.cls-2{fill:#2d2d2d;}.cls-1,.cls-3{font-family:Poppins-SemiBold, Poppins;font-weight:600;}.cls-2,.cls-3{font-size:9.6881px;}.cls-2{font-family:Poppins-ExtraBold, Poppins;font-weight:800;}.cls-3,.cls-4{fill:#9c1915;}.cls-5{fill:#6a140f;}.cls-6{fill:#e52521;}</style></defs><text class="cls-1" transform="translate(34.40207 12.92247)">ELECCIONES DE</text><text class="cls-2" transform="translate(34.5007 21.65001)">REPRESENTANTES</text><text class="cls-3" transform="translate(34.96555 31.41564)">FESC 2025</text><path class="cls-4" d="M3.87372,15.56585v12.118a1.08093,1.08093,0,0,0,.54.935l10.494,6.058a1.07869,1.07869,0,0,0,1.619-.934v-12.118a1.07881,1.07881,0,0,0-.539-.935l-10.495-6.059a1.07966,1.07966,0,0,0-1.619.935"/><path class="cls-5" d="M30.58722,15.56585v12.118a1.081,1.081,0,0,1-.54.935l-10.494,6.058a1.07868,1.07868,0,0,1-1.619-.934v-12.118a1.0788,1.0788,0,0,1,.539-.935l10.495-6.059a1.07967,1.07967,0,0,1,1.619.935"/><path class="cls-6" d="M28.26442,11.35625l-7.747-4.475V5.3153a.79617.79617,0,0,0-.403-.693L13.80642.97625a.801.801,0,0,0-1.204.698v5.985l-6.407,3.697a1.08172,1.08172,0,0,0,0,1.87l10.493,6.05505a1.06635,1.06635,0,0,0,1.083,0l10.493-6.05505a1.078,1.078,0,0,0,0-1.87m-15.381-9.682a.52274.52274,0,0,1,.262-.455.56362.56362,0,0,1,.258-.07.60105.60105,0,0,1,.263.07l6.308,3.646a.52052.52052,0,0,1,.257.45v9.162a.509.509,0,0,1-.257.45.51658.51658,0,0,1-.521,0l-6.308-3.641a.52168.52168,0,0,1-.262-.455v-9.157Z"/></svg>