<svg id="Capa_1" data-name="Capa 1" xmlns="http://www.w3.org/2000/svg" viewBox="0 0 123.96117 36.1165"><defs><style>.cls-1{isolation:isolate;}.cls-2{fill:#2d2d2d;}.cls-3{fill:#9c1915;}.cls-4{fill:#6a140f;}.cls-5{fill:#e52521;}</style></defs><g class="cls-1"><path class="cls-2" d="M36.80615,6.19189V8.20557h2.70362V9.48291H36.80615v2.12793H39.855v1.31152H35.1958v-8.042H39.855V6.19189Z"/><path class="cls-2" d="M42.92676,11.645h2.646v1.27734H41.31641V4.89209h1.61035Z"/><path class="cls-2" d="M48.207,6.19189V8.20557h2.70361V9.48291H48.207v2.12793h3.04883v1.31152H46.59668v-8.042h4.65918V6.19189Z"/><path class="cls-2" d="M52.86084,6.773A3.82555,3.82555,0,0,1,54.32227,5.312a4.14817,4.14817,0,0,1,2.07617-.52344,4.08594,4.08594,0,0,1,2.3584.69043,3.60836,3.60836,0,0,1,1.41552,1.90918H58.31982a1.92036,1.92036,0,0,0-.77636-.8623,2.284,2.284,0,0,0-1.15625-.28809,2.37836,2.37836,0,0,0-1.24854.32813,2.2355,2.2355,0,0,0-.85107.92676A3.04551,3.04551,0,0,0,53.98242,8.896a3.05469,3.05469,0,0,0,.30518,1.39746,2.22524,2.22524,0,0,0,.85107.93164,2.37835,2.37835,0,0,0,1.24854.32812,2.24748,2.24748,0,0,0,1.15625-.293,1.95862,1.95862,0,0,0,.77636-.86914h1.85254a3.58727,3.58727,0,0,1-1.40966,1.916,4.10382,4.10382,0,0,1-2.36426.68457,4.14817,4.14817,0,0,1-2.07617-.52344,3.83308,3.83308,0,0,1-1.46143-1.45605A4.17365,4.17365,0,0,1,52.32617,8.896,4.20949,4.20949,0,0,1,52.86084,6.773Z"/><path class="cls-2" d="M61.69629,6.773A3.82348,3.82348,0,0,1,63.1582,5.312a4.1482,4.1482,0,0,1,2.07618-.52344,4.08588,4.08588,0,0,1,2.35839.69043,3.61,3.61,0,0,1,1.415,1.90918H67.15527a1.91485,1.91485,0,0,0-.77636-.8623,2.28273,2.28273,0,0,0-1.15625-.28809,2.3766,2.3766,0,0,0-1.24805.32813,2.2366,2.2366,0,0,0-.85156.92676A3.04551,3.04551,0,0,0,62.81787,8.896a3.05469,3.05469,0,0,0,.30518,1.39746,2.22631,2.22631,0,0,0,.85156.93164,2.3766,2.3766,0,0,0,1.24805.32812,2.24623,2.24623,0,0,0,1.15625-.293,1.9529,1.9529,0,0,0,.77636-.86914h1.85254a3.5889,3.5889,0,0,1-1.40918,1.916,4.10379,4.10379,0,0,1-2.36425.68457,4.1482,4.1482,0,0,1-2.07618-.52344,3.831,3.831,0,0,1-1.46191-1.45605A4.17365,4.17365,0,0,1,61.16162,8.896,4.20949,4.20949,0,0,1,61.69629,6.773Z"/><path class="cls-2" d="M71.999,4.89209v8.03027H70.38867V4.89209Z"/><path class="cls-2" d="M75.24316,12.47412a3.9555,3.9555,0,0,1-1.49511-1.4668,4.10716,4.10716,0,0,1-.55274-2.123A4.08225,4.08225,0,0,1,73.74805,6.773a3.95557,3.95557,0,0,1,1.49511-1.4668,4.327,4.327,0,0,1,4.14746,0A3.92743,3.92743,0,0,1,80.875,6.773a4.11555,4.11555,0,0,1,.5459,2.11133,4.14077,4.14077,0,0,1-.5459,2.123,3.91525,3.91525,0,0,1-1.49023,1.4668,4.32253,4.32253,0,0,1-4.14161,0Zm3.34766-1.2373a2.2503,2.2503,0,0,0,.86328-.9375,3.07582,3.07582,0,0,0,.31055-1.415A3.03966,3.03966,0,0,0,79.4541,7.4751a2.22172,2.22172,0,0,0-.86328-.92676,2.49564,2.49564,0,0,0-1.27637-.32129,2.5288,2.5288,0,0,0-1.2832.32129,2.20808,2.20808,0,0,0-.86816.92676,3.0397,3.0397,0,0,0-.31153,1.40918,3.07588,3.07588,0,0,0,.31153,1.415,2.23616,2.23616,0,0,0,.86816.9375,2.48419,2.48419,0,0,0,1.2832.32812A2.45175,2.45175,0,0,0,78.59082,11.23682Z"/><path class="cls-2" d="M89.48535,12.92236H87.875L84.22754,7.41162v5.51074H82.61719v-8.042h1.61035L87.875,10.40283V4.88037h1.61035Z"/><path class="cls-2" d="M92.68359,6.19189V8.20557h2.70313V9.48291H92.68359v2.12793h3.04883v1.31152H91.07324v-8.042h4.65918V6.19189Z"/><path class="cls-2" d="M98.45312,12.71533a2.48511,2.48511,0,0,1-1.06445-.82812,2.182,2.182,0,0,1-.40234-1.27735h1.72558a1.116,1.116,0,0,0,.35059.78223,1.24181,1.24181,0,0,0,.86914.28809,1.33871,1.33871,0,0,0,.88574-.27051.87989.87989,0,0,0,.32227-.708.81722.81722,0,0,0-.21875-.58594,1.5288,1.5288,0,0,0-.54688-.36328,9.115,9.115,0,0,0-.90234-.293,9.7058,9.7058,0,0,1-1.27148-.4541,2.22156,2.22156,0,0,1-.83985-.67871,1.93418,1.93418,0,0,1-.35058-1.21387,2.16966,2.16966,0,0,1,.35644-1.24316,2.26314,2.26314,0,0,1,1.001-.81055,3.64755,3.64755,0,0,1,1.47265-.28222,3.18963,3.18963,0,0,1,2.01856.60449,2.2384,2.2384,0,0,1,.85742,1.68554h-1.77148a.92011.92011,0,0,0-.35157-.68457,1.31913,1.31913,0,0,0-.86816-.2705,1.11994,1.11994,0,0,0-.75391.24121.87545.87545,0,0,0-.28125.70215.72423.72423,0,0,0,.21289.53515,1.61461,1.61461,0,0,0,.52832.34473q.31641.13183.89161.30469a9.39325,9.39325,0,0,1,1.27734.46,2.30663,2.30663,0,0,1,.85156.69043,1.92279,1.92279,0,0,1,.35645,1.208,2.26684,2.26684,0,0,1-.334,1.19629,2.35117,2.35117,0,0,1-.97754.88086,3.33381,3.33381,0,0,1-1.53027.32715A3.82218,3.82218,0,0,1,98.45312,12.71533Z"/><path class="cls-2" d="M111.9707,5.38721a3.52919,3.52919,0,0,1,1.48438,1.40918,4.20022,4.20022,0,0,1,.52344,2.12207,4.13688,4.13688,0,0,1-.52344,2.11133,3.55052,3.55052,0,0,1-1.48438,1.39746,4.794,4.794,0,0,1-2.22558.49511H106.9375V4.89209h2.80762A4.79386,4.79386,0,0,1,111.9707,5.38721Zm-.32812,5.47558a2.6259,2.6259,0,0,0,.69043-1.94433,2.68518,2.68518,0,0,0-.69043-1.96094,2.60569,2.60569,0,0,0-1.95508-.708h-1.13965v5.30371h1.13965A2.644,2.644,0,0,0,111.64258,10.86279Z"/><path class="cls-2" d="M116.79688,6.19189V8.20557h2.7041V9.48291h-2.7041v2.12793h3.04882v1.31152h-4.65918v-8.042h4.65918V6.19189Z"/></g><g class="cls-1"><path class="cls-2" d="M38.50146,21.65039l-1.35595-2.51855h-.20362v2.51855H35.043V14.81982h2.99365a3.09662,3.09662,0,0,1,1.395.28614,2.00294,2.00294,0,0,1,.86231.78418,2.18329,2.18329,0,0,1,.29052,1.11914,2.03433,2.03433,0,0,1-.38232,1.22558,2.06655,2.06655,0,0,1-1.11914.751l1.54053,2.66455Zm-1.55957-3.81787h.93995a.81893.81893,0,0,0,.58105-.18359.701.701,0,0,0,.19385-.53321.682.682,0,0,0-.19873-.51855.80468.80468,0,0,0-.57617-.18848h-.93995Z"/><path class="cls-2" d="M43.3457,16.34131v1.11328h2.17969v1.44434H43.3457v1.23h2.47071v1.52148H41.44678V14.81982h4.36963v1.52149Z"/><path class="cls-2" d="M51.86621,18.2251a2.067,2.067,0,0,1-.8623.814,2.973,2.973,0,0,1-1.40918.30567h-.93994v2.30566H46.75586V14.81982h2.83887a3.07544,3.07544,0,0,1,1.3999.291,1.99761,1.99761,0,0,1,.8667.80371,2.35786,2.35786,0,0,1,.291,1.18164A2.26385,2.26385,0,0,1,51.86621,18.2251Zm-1.65185-1.12891q0-.74561-.80372-.74609h-.75585v1.48242h.75585Q50.21411,17.83252,50.21436,17.09619Z"/><path class="cls-2" d="M56.37549,21.65039l-1.356-2.51855h-.20361v2.51855H52.917V14.81982h2.99365a3.09662,3.09662,0,0,1,1.395.28614,2.00294,2.00294,0,0,1,.86231.78418,2.1832,2.1832,0,0,1,.29053,1.11914,2.03434,2.03434,0,0,1-.38233,1.22558,2.06655,2.06655,0,0,1-1.11914.751l1.54053,2.66455Zm-1.55957-3.81787h.93994a.81893.81893,0,0,0,.58105-.18359.701.701,0,0,0,.19385-.53321.682.682,0,0,0-.19873-.51855.80467.80467,0,0,0-.57617-.18848h-.93994Z"/><path class="cls-2" d="M61.21973,16.34131v1.11328h2.17968v1.44434H61.21973v1.23h2.4707v1.52148H59.3208V14.81982h4.36963v1.52149Z"/><path class="cls-2" d="M65.25,21.15137a2.0505,2.0505,0,0,1-.82324-1.623h2.02441a.75453.75453,0,0,0,.21387.52344.68031.68031,0,0,0,.47461.165.68723.68723,0,0,0,.43066-.13086.43193.43193,0,0,0,.16992-.36328.513.513,0,0,0-.28125-.46485,4.97278,4.97278,0,0,0-.91015-.36865,8.18265,8.18265,0,0,1-1.08106-.43164,2.07088,2.07088,0,0,1-.71679-.61035,1.69275,1.69275,0,0,1-.30469-1.05078,1.91566,1.91566,0,0,1,.3291-1.12891,2.035,2.035,0,0,1,.91113-.71191,3.39931,3.39931,0,0,1,1.31739-.24219,3.00768,3.00768,0,0,1,1.90332.55664,2.00591,2.00591,0,0,1,.76074,1.56445H67.60449a.60852.60852,0,0,0-.18945-.46484.68032.68032,0,0,0-.46-.1543.49328.49328,0,0,0-.34863.126.46311.46311,0,0,0-.13575.3584.44108.44108,0,0,0,.15039.334,1.3832,1.3832,0,0,0,.37305.24219q.22266.10107.65918.25683a8.07814,8.07814,0,0,1,1.07031.44043,2.20091,2.20091,0,0,1,.72657.61036,1.57314,1.57314,0,0,1,.30468.99365,2.01294,2.01294,0,0,1-.30468,1.09473,2.10313,2.10313,0,0,1-.88184.76562,3.07434,3.07434,0,0,1-1.36133.28027A3.20358,3.20358,0,0,1,65.25,21.15137Z"/><path class="cls-2" d="M72.53613,16.34131v1.11328h2.17969v1.44434H72.53613v1.23h2.47071v1.52148H70.63672V14.81982h4.37012v1.52149Z"/><path class="cls-2" d="M82.27148,21.65039H80.37305l-2.52832-3.81787v3.81787H75.94531V14.81982h1.89942l2.52832,3.86524V14.81982h1.89843Z"/><path class="cls-2" d="M88.50195,14.81982v1.51172H86.68066v5.31885H84.78125V16.33154H82.97949V14.81982Z"/><path class="cls-2" d="M93.5293,20.53613H91.10742l-.36816,1.11426H88.74414l2.48926-6.83057h2.18945l2.48047,6.83057H93.89746ZM93.05469,19.083l-.73633-2.20947L91.5918,19.083Z"/><path class="cls-2" d="M102.84961,21.65039h-1.89844l-2.52929-3.81787v3.81787H96.52344V14.81982h1.89844l2.52929,3.86524V14.81982h1.89844Z"/><path class="cls-2" d="M109.0791,14.81982v1.51172h-1.82129v5.31885H105.3584V16.33154h-1.80176V14.81982Z"/><path class="cls-2" d="M111.68457,16.34131v1.11328h2.17969v1.44434h-2.17969v1.23h2.4707v1.52148h-4.36914V14.81982h4.36914v1.52149Z"/><path class="cls-2" d="M115.71484,21.15137a2.05053,2.05053,0,0,1-.82324-1.623H116.916a.75457.75457,0,0,0,.21386.52344.68033.68033,0,0,0,.47461.165.68726.68726,0,0,0,.43067-.13086.43193.43193,0,0,0,.16992-.36328.513.513,0,0,0-.28125-.46485,4.97263,4.97263,0,0,0-.91016-.36865,8.18188,8.18188,0,0,1-1.08105-.43164,2.07082,2.07082,0,0,1-.7168-.61035,1.69281,1.69281,0,0,1-.30469-1.05078,1.91573,1.91573,0,0,1,.3291-1.12891,2.035,2.035,0,0,1,.91114-.71191,3.39926,3.39926,0,0,1,1.31738-.24219,3.00766,3.00766,0,0,1,1.90332.55664,2.00588,2.00588,0,0,1,.76074,1.56445h-2.06347a.60856.60856,0,0,0-.18946-.46484.68032.68032,0,0,0-.46-.1543.49328.49328,0,0,0-.34863.126.46314.46314,0,0,0-.13574.3584.441.441,0,0,0,.15039.334,1.3833,1.3833,0,0,0,.373.24219q.22266.10107.65918.25683a8.07834,8.07834,0,0,1,1.07032.44043,2.20087,2.20087,0,0,1,.72656.61036,1.57315,1.57315,0,0,1,.30469.99365,2.013,2.013,0,0,1-.30469,1.09473,2.10307,2.10307,0,0,1-.88184.76562,3.0743,3.0743,0,0,1-1.36132.28027A3.20361,3.20361,0,0,1,115.71484,21.15137Z"/></g><g class="cls-1"><path class="cls-3" d="M39.80957,24.65332v1.09473H36.99023v1.73437h2.16016v1.0752H36.99023V31.416H35.63379v-6.7627Z"/><path class="cls-3" d="M42.125,25.74805v1.69629h2.27686v1.07519H42.125v1.792h2.56738V31.416H40.76855V24.64355h3.92383v1.1045Z"/><path class="cls-3" d="M46.9834,31.24121a2.08873,2.08873,0,0,1-.89649-.69726,1.83864,1.83864,0,0,1-.33886-1.0752h1.45312a.94271.94271,0,0,0,.29541.65918,1.04859,1.04859,0,0,0,.73145.24219,1.12245,1.12245,0,0,0,.74609-.22852.73945.73945,0,0,0,.27149-.5957.69039.69039,0,0,0-.18409-.49414,1.29532,1.29532,0,0,0-.46045-.30469A7.74344,7.74344,0,0,0,47.84082,28.5a8.0887,8.0887,0,0,1-1.0708-.38281,1.87527,1.87527,0,0,1-.707-.57129,1.627,1.627,0,0,1-.29541-1.02246,1.82592,1.82592,0,0,1,.30029-1.0459,1.91154,1.91154,0,0,1,.84277-.68359,3.06558,3.06558,0,0,1,1.24024-.23731,2.69215,2.69215,0,0,1,1.70019.50879,1.886,1.886,0,0,1,.72168,1.419H49.08057a.77467.77467,0,0,0-.29541-.57618,1.11536,1.11536,0,0,0-.73145-.22754.93974.93974,0,0,0-.63428.20313.73489.73489,0,0,0-.23779.59082.61351.61351,0,0,0,.1792.45117,1.37128,1.37128,0,0,0,.4458.29,7.70537,7.70537,0,0,0,.751.25684,8.03355,8.03355,0,0,1,1.07519.38769,1.94142,1.94142,0,0,1,.7168.58106,1.61665,1.61665,0,0,1,.30078,1.01757,1.91262,1.91262,0,0,1-.28125,1.00782,1.99263,1.99263,0,0,1-.82324.74121,2.81637,2.81637,0,0,1-1.28858.27539A3.19838,3.19838,0,0,1,46.9834,31.24121Z"/><path class="cls-3" d="M51.94336,26.2373a3.21449,3.21449,0,0,1,1.23047-1.22949,3.49018,3.49018,0,0,1,1.74853-.4414,3.44608,3.44608,0,0,1,1.98633.581,3.04046,3.04046,0,0,1,1.19141,1.6084H56.54053a1.62368,1.62368,0,0,0-.6543-.72656,1.92177,1.92177,0,0,0-.97363-.24219,1.99671,1.99671,0,0,0-1.05078.27637,1.88523,1.88523,0,0,0-.71729.77929,2.84255,2.84255,0,0,0,0,2.35938,1.88324,1.88324,0,0,0,.71729.78515,2.00513,2.00513,0,0,0,1.05078.2754,1.8855,1.8855,0,0,0,.97363-.24708,1.6415,1.6415,0,0,0,.6543-.73144H58.1001a3.021,3.021,0,0,1-1.18653,1.61328,3.453,3.453,0,0,1-1.99121.57715,3.49008,3.49008,0,0,1-1.74853-.44141,3.22446,3.22446,0,0,1-1.23047-1.22558,3.76087,3.76087,0,0,1,0-3.57032Z"/><path class="cls-3" d="M61.83984,29.88574q.92945-.77637,1.48243-1.29394a5.971,5.971,0,0,0,.91992-1.08008,2.00586,2.00586,0,0,0,.36816-1.10449,1.181,1.181,0,0,0-.23242-.77539.87772.87772,0,0,0-.7168-.28028.90456.90456,0,0,0-.74609.32422,1.4152,1.4152,0,0,0-.27149.88672H61.32617a2.39083,2.39083,0,0,1,.69287-1.76367,2.36122,2.36122,0,0,1,1.66162-.60059,2.30527,2.30527,0,0,1,1.69532.58594,2.08375,2.08375,0,0,1,.59082,1.5459,2.80024,2.80024,0,0,1-.40625,1.44336,5.70936,5.70936,0,0,1-.93067,1.19629q-.52295.50829-1.36621,1.22558h2.8584v1.124H61.33594V30.31152Z"/><path class="cls-3" d="M67.58008,25.167a2.60327,2.60327,0,0,1,4.02051,0,4.86572,4.86572,0,0,1,.60546,2.626,4.93829,4.93829,0,0,1-.60546,2.64453,2.58648,2.58648,0,0,1-4.02051,0,4.93829,4.93829,0,0,1-.60547-2.64453A4.86571,4.86571,0,0,1,67.58008,25.167Zm3.19726,1.41992a1.63443,1.63443,0,0,0-.36816-.7998,1.23776,1.23776,0,0,0-1.6377,0,1.63443,1.63443,0,0,0-.36816.7998,6.64729,6.64729,0,0,0-.0918,1.20606,7.41079,7.41079,0,0,0,.08692,1.23535,1.5522,1.5522,0,0,0,.36816.80371,1.26582,1.26582,0,0,0,1.64746,0,1.55229,1.55229,0,0,0,.36817-.80371,7.412,7.412,0,0,0,.08691-1.23535A6.64639,6.64639,0,0,0,70.77734,26.58691Z"/><path class="cls-3" d="M73.65918,29.88574q.93018-.77637,1.48242-1.29394a5.97024,5.97024,0,0,0,.91992-1.08008,2.00579,2.00579,0,0,0,.36817-1.10449,1.181,1.181,0,0,0-.23242-.77539.87773.87773,0,0,0-.7168-.28028.90456.90456,0,0,0-.74609.32422,1.42123,1.42123,0,0,0-.27149.88672H73.14551a2.391,2.391,0,0,1,.69336-1.76367A2.35913,2.35913,0,0,1,75.5,24.19824a2.30523,2.30523,0,0,1,1.69531.58594,2.08371,2.08371,0,0,1,.59082,1.5459,2.80015,2.80015,0,0,1-.40625,1.44336,5.70932,5.70932,0,0,1-.93066,1.19629q-.52294.50829-1.36621,1.22558h2.8584v1.124H73.15527V30.31152Z"/><path class="cls-3" d="M83.541,25.52539H80.40234v1.65723a1.4573,1.4573,0,0,1,.58106-.41211,2.04421,2.04421,0,0,1,.80469-.16016,2.19029,2.19029,0,0,1,1.26855.33985,1.96052,1.96052,0,0,1,.7168.86621,2.87789,2.87789,0,0,1,.22265,1.1289,2.51869,2.51869,0,0,1-.63379,1.793,2.3552,2.3552,0,0,1-1.80761.67774,2.65482,2.65482,0,0,1-1.7627-.55176,2.07409,2.07409,0,0,1-.74609-1.44434h1.31738a1.042,1.042,0,0,0,.39258.62012,1.24769,1.24769,0,0,0,.78027.23242,1.04483,1.04483,0,0,0,.86231-.3584,1.46076,1.46076,0,0,0,.29-.94922,1.29187,1.29187,0,0,0-.29493-.915,1.13343,1.13343,0,0,0-.86718-.31542,1.10471,1.10471,0,0,0-.67871.20312,1.11891,1.11891,0,0,0-.3877.543H79.16211V24.334H83.541Z"/></g><path class="cls-3" d="M3.87372,15.56585v12.118a1.08093,1.08093,0,0,0,.54.935l10.494,6.058a1.07869,1.07869,0,0,0,1.619-.934v-12.118a1.07884,1.07884,0,0,0-.539-.935l-10.495-6.059a1.07967,1.07967,0,0,0-1.619.935"/><path class="cls-4" d="M30.58722,15.56585v12.118a1.081,1.081,0,0,1-.54.935l-10.494,6.058a1.07868,1.07868,0,0,1-1.619-.934v-12.118a1.07879,1.07879,0,0,1,.539-.935l10.495-6.059a1.07968,1.07968,0,0,1,1.619.935"/><path class="cls-5" d="M28.26442,11.35625l-7.747-4.475V5.3153a.79618.79618,0,0,0-.403-.693l-6.308-3.646a.801.801,0,0,0-1.204.698v5.985l-6.407,3.697a1.08172,1.08172,0,0,0,0,1.87l10.493,6.05505a1.06635,1.06635,0,0,0,1.083,0l10.493-6.05505a1.078,1.078,0,0,0,0-1.87m-15.381-9.682a.52275.52275,0,0,1,.262-.455.56362.56362,0,0,1,.258-.07.601.601,0,0,1,.263.07l6.308,3.646a.52051.52051,0,0,1,.257.45v9.162a.509.509,0,0,1-.257.45.51658.51658,0,0,1-.521,0l-6.308-3.641a.5217.5217,0,0,1-.262-.455Z"/></svg>