<svg id="Capa_1" data-name="Capa 1" xmlns="http://www.w3.org/2000/svg" viewBox="0 0 119.70874 35.65049"><defs><style>.cls-1{font-size:11.5046px;}.cls-1,.cls-2{fill:#2d2d2d;}.cls-1,.cls-3{font-family:Poppins-SemiBold, Poppins;font-weight:600;}.cls-2,.cls-3{font-size:9.6881px;}.cls-2{font-family:Poppins-ExtraBold, Poppins;font-weight:800;}.cls-3,.cls-4{fill:#9c1915;}.cls-5{fill:#6a140f;}.cls-6{fill:#e52521;}</style></defs><text class="cls-1" transform="translate(31.93444 12.79267)">ELECCIONES DE</text><text class="cls-2" transform="translate(32.03307 21.52021)">REPRESENTANTES</text><text class="cls-3" transform="translate(32.49792 31.28583)">CÚCUTA 2025</text><path class="cls-4" d="M1.4061,15.436v12.118a1.08091,1.08091,0,0,0,.54.935l10.494,6.058a1.0787,1.0787,0,0,0,1.619-.934v-12.118a1.0788,1.0788,0,0,0-.539-.935l-10.495-6.059a1.07965,1.07965,0,0,0-1.619.935"/><path class="cls-5" d="M28.11959,15.436v12.118a1.08092,1.08092,0,0,1-.54.935l-10.494,6.058a1.0787,1.0787,0,0,1-1.619-.934v-12.118a1.07881,1.07881,0,0,1,.539-.935l10.495-6.059a1.07966,1.07966,0,0,1,1.619.935"/><path class="cls-6" d="M25.79679,11.22645l-7.747-4.475c-.06412-.76518.23554-1.95479-.403-2.259L11.33879.84644a.801.801,0,0,0-1.204.698V7.52949l-6.407,3.697a1.08172,1.08172,0,0,0,0,1.87l10.493,6.05506a1.06635,1.06635,0,0,0,1.083,0l10.493-6.05506a1.078,1.078,0,0,0,0-1.87m-15.381-9.682a.52272.52272,0,0,1,.262-.45495.53.53,0,0,1,.521,0l6.308,3.646c.42552.17361.20756,1.24431.257,1.852l0,7.76a.52058.52058,0,0,1-.778.45l-6.308-3.641a.52166.52166,0,0,1-.262-.455C10.40716,8.64851,10.422,3.64913,10.41579,1.54444Z"/></svg>